# xmcd
#
# Track frame offsets: 
#        183
#        13625
#        27305
#        41353
#        54513
#        66150
#        79540
#        92925
#        102360
#        120045
#        137520
#        148858
#        160853
#        177948
#        196893
#        210748
#
# Disc length: 3001 seconds
#
# Revision: 1
# Processed by: cddbd v1.5.2PL0 Copyright (c) Steve Scherf et al.
# Submitted via: ExactAudioCopy v0.99pb1
#
DISCID=d00bb710
DTITLE=Roy Eldridge - Little Jazz - Les Génies du Jazz III 2
DYEAR=1990
DGENRE=Jazz
TTITLE0=Swingin' on the Famous Door
TTITLE1=Farwell Blues
TTITLE2=Wabash Stomp
TTITLE3=Florida Stomp
TTITLE4=Heckler's Hop
TTITLE5=That Thing
TTITLE6=After You've Gone
TTITLE7=Sittin' In
TTITLE8=Stardust
TTITLE9=Body and Soul
TTITLE10=46th West 52nd
TTITLE11=Smack
TTITLE12=I Surrender Dear
TTITLE13=I Can't Believe that You're in Love with me
TTITLE14=High Society
TTITLE15=Let me Off Uptown
EXTD=
EXTT0=
EXTT1=
EXTT2=
EXTT3=
EXTT4=
EXTT5=
EXTT6=
EXTT7=
EXTT8=
EXTT9=
EXTT10=
EXTT11=
EXTT12=
EXTT13=
EXTT14=
EXTT15=
PLAYORDER=
